PathFileType	4	(X/Y/Z)	Walk7.trc
DataRate	CameraRate	NumFrames	NumMarkers	Units	OrigDataRate	OrigDataStartFrame	OrigNumFrames
200.000000	200.000000	4	59	mm	200.000000	376	495
Frame#	Times		LFHD		RFHD		C7		CLAV		RBack		RASI		RACR1		RUA1		RElbowM		RFA1		RWRR		RWRU		LACR1		LUA1		LFA1		LWRR		LWRU		RTH1		RTH3		LTH2		LTH4		LASI		LTH3		RTB1		RTB3		RCAR		LTB2		LCAR		T10		RPSI		LLFC		LBHD		LToe		RBHD		STRN		RElbow		RTB4		RTH2		LTB1		RTB2		LTB4		LElbow		LPSI		LElbowM		LTH1		LMMAL		LMT1		RTH4		LTB3		LCAL		LMT5		RLFC		LLMAL		RMT1		RToe		RCAL		RMMAL		RLMAL		RMT5
			X1	Y1	Z1	X2	Y2	Z2	X3	Y3	Z3	X4	Y4	Z4	X5	Y5	Z5	X6	Y6	Z6	X7	Y7	Z7	X8	Y8	Z8	X9	Y9	Z9	X10	Y10	Z10	X11	Y11	Z11	X12	Y12	Z12	X13	Y13	Z13	X14	Y14	Z14	X15	Y15	Z15	X16	Y16	Z16	X17	Y17	Z17	X18	Y18	Z18	X19	Y19	Z19	X20	Y20	Z20	X21	Y21	Z21	X22	Y22	Z22	X23	Y23	Z23	X24	Y24	Z24	X25	Y25	Z25	X26	Y26	Z26	X27	Y27	Z27	X28	Y28	Z28	X29	Y29	Z29	X30	Y30	Z30	X31	Y31	Z31	X32	Y32	Z32	X33	Y33	Z33	X34	Y34	Z34	X35	Y35	Z35	X36	Y36	Z36	X37	Y37	Z37	X38	Y38	Z38	X39	Y39	Z39	X40	Y40	Z40	X41	Y41	Z41	X42	Y42	Z42	X43	Y43	Z43	X44	Y44	Z44	X45	Y45	Z45	X46	Y46	Z46	X47	Y47	Z47	X48	Y48	Z48	X49	Y49	Z49	X50	Y50	Z50	X51	Y51	Z51	X52	Y52	Z52	X53	Y53	Z53	X54	Y54	Z54	X55	Y55	Z55	X56	Y56	Z56	X57	Y57	Z57	X58	Y58	Z58	X59	Y59	Z59

376	1.88	217.6	1431.7	-14.812	211.73	1418.1	80.574	37.659	1273.5	22.398	175.22	1186	10.87	-5.8656	1148.9	138.83	164.64	844.14	173.59	115.52	1210.7	194.93	131.96	1066.3	269.25	63.425	909.8	233.93	182.39	825.09	300.82	198.62	726.08	263.9	168.5	725.77	330.02	85.017	1220.2	-170.61	91.88	1059.6	-247.22	131.35	856.6	-300.22	186.5	756.46	-280.07	142.63	747.44	-324.64	109.89	643.91	217.82	112.98	477.28	170.28	167.25	598.81	-163.45	119.09	576.86	-191.34	129.54	818.19	-155.16	141.48	494.66	-169.64	136.34	288.98	82.444	107.13	121.1	60.126	216.49	672.4	315.76	63.823	256.95	-118.51	193.24	710.66	-327.76	-53.004	1075.6	30.801	-95.84	854.02	77.312	180.3	400.68	-142.18	84.39	1364.9	-42.209	47.311	35.519	-58.396	78.055	1354.6	90.143	224.89	1079.3	11.1	121.22	940.56	300.37	118.84	204.24	71.648	165.76	567.91	175.52	150.08	302.21	-74.742	90.548	202.97	126.22	85.946	242.89	-62.492	59.633	940.84	-265.03	-110.08	849	-26.718	41.479	913.55	-195.53	95.839	659.29	-204.36	-26.711	157.54	-1.0209	15.37	56.817	-24.111	109.8	560.24	196.51	29.413	182.84	-53.231	-97.37	178.05	-25.8	-32.871	75.251	-96.757	95.456	391.43	142.55	-62.959	161.28	-75.06	161.43	29.257	16.944	221.23	30.791	43.695	-2.2716	34.121	58.419	61.612	69.66	15.656	59.632	60.115	99.489	145.62	22.388	113.11
377	1.885	223.1	1432.1	-14.898	217.2	1418.6	80.497	43.224	1273.9	22.327	180.74	1186.5	10.808	-0.44346	1149.5	138.84	169.23	844.36	174.18	120.94	1211.3	194.87	137.74	1067	269.25	69.326	910.36	234.42	188.88	826.03	300.83	205.46	727.13	263.94	175.41	726.66	330.08	90.258	1220.5	-170.63	96.607	1060	-247.37	135.06	856.28	-300.16	189.04	755.43	-279.99	145.18	747.04	-324.68	113.43	643.74	218.16	114.79	477.09	170.46	173.95	600.41	-163.19	125.84	577.92	-190.88	135.52	818.97	-155.04	149.1	496	-168.96	137.63	288.72	82.626	107.51	121	60.21	223.71	673.61	315.81	75.704	256.19	-117.58	195.35	709.43	-327.61	-47.411	1076	30.962	-90.338	854.38	77.511	188.93	402.52	-141.38	89.929	1365.3	-42.31	66.167	35.432	-57.963	83.533	1355.1	90.052	230.38	1079.8	10.668	127.35	941.3	300.6	119.69	204.08	71.784	168.59	567.17	175.99	160.9	303.57	-73.929	91.366	202.94	126.32	98.262	242.69	-61.62	64.324	941.16	-264.75	-104.52	849.79	-26.508	45.961	914.13	-195.3	101.8	660.09	-204.09	-12.004	154.39	-0.049305	33.575	55.652	-23.63	112.43	560.02	196.71	43.332	181.23	-52.269	-83.425	172.69	-24.568	-15.617	72.352	-95.995	97.237	391.41	142.66	-48.507	157.21	-74.029	161.46	29.259	16.94	221.36	30.718	43.811	-2.1934	34.416	58.416	61.737	69.775	15.72	59.771	60.218	99.455	145.6	22.388	113.12
378	1.89	228.58	1432.5	-15	222.64	1419	80.406	48.786	1274.3	22.248	186.25	1186.9	10.744	4.9857	1150.1	138.86	173.85	844.5	174.74	126.37	1211.9	194.81	143.45	1067.6	269.26	75.208	910.88	234.9	195.33	826.94	300.85	212.28	728.17	263.98	182.28	727.52	330.13	95.523	1220.8	-170.66	101.32	1060.4	-247.52	138.8	855.96	-300.15	191.59	754.41	-279.96	147.74	746.66	-324.79	116.97	643.57	218.46	116.72	476.96	170.56	180.58	601.91	-162.98	132.53	578.91	-190.44	141.51	819.76	-154.91	156.61	497.26	-168.27	138.91	288.47	82.824	107.9	120.92	60.3	230.92	674.81	315.87	87.62	255.28	-116.66	197.48	708.24	-327.55	-41.826	1076.3	31.128	-84.822	854.71	77.748	197.38	404.28	-140.55	95.455	1365.6	-42.426	85.29	35.373	-57.578	88.994	1355.5	89.946	235.86	1080.3	10.201	133.44	942.01	300.83	120.54	203.93	71.926	171.47	566.51	176.4	171.65	304.85	-73.119	92.17	202.92	126.42	110.64	242.38	-60.761	69.024	941.46	-264.51	-98.989	850.56	-26.267	50.457	914.65	-195.12	107.73	660.81	-203.85	2.9672	151.04	0.89395	52.066	54.429	-23.193	115.1	559.84	196.87	57.424	179.47	-51.326	-69.18	167	-23.349	1.9535	69.321	-95.276	99.01	391.41	142.76	-33.798	152.89	-73.012	161.49	29.26	16.936	221.49	30.643	43.935	-2.1107	34.74	58.407	61.88	69.902	15.781	59.909	60.324	99.411	145.57	22.388	113.12
379	1.895	234.04	1432.9	-15.113	228.06	1419.4	80.303	54.34	1274.6	22.16	191.75	1187.2	10.679	10.423	1150.6	138.9	178.54	844.57	175.27	131.8	1212.4	194.75	149.1	1068.2	269.29	81.072	911.35	235.36	201.76	827.8	300.89	219.09	729.17	264.04	189.11	728.33	330.19	100.81	1221.1	-170.7	106.04	1060.7	-247.67	142.57	855.64	-300.17	194.15	753.4	-280.01	150.34	746.29	-324.98	120.54	643.43	218.74	118.8	476.88	170.58	187.16	603.31	-162.79	139.16	579.81	-190.02	147.51	820.55	-154.77	164.02	498.43	-167.6	140.2	288.23	83.038	108.3	120.85	60.394	238.1	675.98	315.95	99.565	254.23	-115.75	199.62	707.08	-327.59	-36.249	1076.7	31.301	-79.295	855.03	78.011	205.63	405.94	-139.69	100.97	1365.8	-42.555	104.64	35.37	-57.266	94.439	1355.8	89.827	241.34	1080.7	9.7069	139.49	942.68	301.06	121.39	203.79	72.073	174.4	565.93	176.74	182.32	306.05	-72.316	92.961	202.92	126.52	123.06	241.97	-59.92	73.73	941.71	-264.31	-93.481	851.29	-26.004	54.976	915.13	-194.96	113.63	661.46	-203.64	18.197	147.51	1.7939	70.817	53.183	-22.822	117.85	559.7	196.97	71.678	177.57	-50.413	-54.626	161.03	-22.157	19.819	66.205	-94.621	100.78	391.41	142.85	-18.83	148.34	-72.024	161.53	29.259	16.931	221.62	30.565	44.067	-2.0245	35.092	58.389	62.046	70.042	15.836	60.044	60.435	99.356	145.55	22.388	113.12
